<svg width="24" height="24" viewBox="0 0 24 24" fill="none" xmlns="http://www.w3.org/2000/svg">
<g clip-path="url(#clip0_196_2)">
<path fill-rule="evenodd" clip-rule="evenodd" d="M7.94002 13.0599C7.65912 12.7787 7.50134 12.3974 7.50134 11.9999C7.50134 11.6024 7.65912 11.2212 7.94002 10.9399L13.596 5.2819C13.8774 5.00064 14.259 4.84268 14.6569 4.84277C14.8539 4.84282 15.0489 4.88167 15.2309 4.9571C15.4129 5.03253 15.5783 5.14307 15.7175 5.2824C15.8568 5.42173 15.9672 5.58713 16.0426 5.76915C16.1179 5.95117 16.1567 6.14625 16.1567 6.34325C16.1566 6.54025 16.1178 6.73531 16.0423 6.9173C15.9669 7.09929 15.8564 7.26463 15.717 7.4039L11.121 11.9999L15.717 16.5959C15.8604 16.7342 15.9747 16.8997 16.0534 17.0826C16.1321 17.2656 16.1736 17.4624 16.1754 17.6616C16.1772 17.8607 16.1394 18.0583 16.064 18.2427C15.9887 18.427 15.8774 18.5946 15.7366 18.7355C15.5958 18.8764 15.4284 18.9878 15.2441 19.0633C15.0598 19.1389 14.8623 19.1769 14.6631 19.1753C14.464 19.1736 14.2671 19.1323 14.0841 19.0538C13.901 18.9753 13.7355 18.8611 13.597 18.7179L7.93802 13.0599H7.94002Z" fill="black"/>
</g>
<defs>
<clipPath id="clip0_196_2">
<rect width="24" height="24" fill="white"/>
</clipPath>
</defs>
</svg>
