<svg width="24" height="24" viewBox="0 0 24 24" fill="none" xmlns="http://www.w3.org/2000/svg">
<g clip-path="url(#clip0_196_6)">
<path fill-rule="evenodd" clip-rule="evenodd" d="M16.06 13.0599C16.3409 12.7787 16.4987 12.3974 16.4987 11.9999C16.4987 11.6024 16.3409 11.2212 16.06 10.9399L10.404 5.2819C10.1226 5.00064 9.74098 4.84268 9.34312 4.84277C9.14612 4.84282 8.95106 4.88167 8.76908 4.9571C8.58709 5.03253 8.42174 5.14307 8.28248 5.2824C8.14321 5.42173 8.03275 5.58713 7.95741 5.76915C7.88206 5.95117 7.8433 6.14625 7.84335 6.34325C7.8434 6.54025 7.88224 6.73531 7.95768 6.9173C8.03311 7.09929 8.14364 7.26463 8.28298 7.4039L12.879 11.9999L8.28298 16.5959C8.13965 16.7342 8.0253 16.8997 7.9466 17.0826C7.8679 17.2656 7.82643 17.4624 7.82461 17.6616C7.82278 17.8607 7.86064 18.0583 7.93598 18.2427C8.01131 18.427 8.12261 18.5946 8.26338 18.7355C8.40415 18.8764 8.57158 18.9878 8.75589 19.0633C8.9402 19.1389 9.1377 19.1769 9.33687 19.1753C9.53603 19.1736 9.73288 19.1323 9.91593 19.0538C10.099 18.9753 10.2645 18.8611 10.403 18.7179L16.062 13.0599H16.06Z" fill="black"/>
</g>
<defs>
<clipPath id="clip0_196_6">
<rect width="24" height="24" fill="white" transform="matrix(-1 0 0 1 24 0)"/>
</clipPath>
</defs>
</svg>
